/* XPM */
static char *result[] = {
/* columns rows colors chars-per-pixel */
"32 32 13 1 ",
"  c #472C0E",
". c #3D4E68",
"X c #3F506A",
"o c #6DC6EA",
"O c #E2A7AD",
"+ c #8CABD3",
"@ c #8CD0D3",
"# c #8BE4C9",
"$ c #F0D9F2",
"% c #F0DDF3",
"& c #FFFAF5",
"* c #F1F9FC",
"= c None",
/* pixels */
"==============o===@=============",
"=============ooo================",
"==============o=================",
"=======....=============.....===",
"=====..***..===========....*..==",
"=o==.******..==.....==.******.==",
"ooo=..*+++***..........******..=",
"=o===.*++++*************++++**.=",
"====..*+++.*************.+++**.=",
"====.**++.***************.++*.==",
"=====.**.*****************.*..==",
"====...*********************.===",
"===.*..*********************.===",
"==.***.*********************.===",
"==.***.****** &***** &*******.==",
"=.***********  *****  *******.==",
"=..*********$$*******%$*****..==",
"==.************O***O********.===",
"===.************OOO**********X==",
"===..*.**********************X==",
"=====..*********************X===",
"=======.********************.===",
"=======..****************.*.====",
"====@===..*************....=====",
"==========..***...****...=====@=",
"===========.....==.....======#@#",
"==============================@=",
"================================",
"================================",
"================================",
"================================",
"================================"
};
