/* XPM */
static char *result[] = {
/* columns rows colors chars-per-pixel */
"32 32 20 1 ",
"  c #ABD0E7",
". c #CAE8F1",
"X c #D0EFF7",
"o c #D9ECF5",
"O c #D2E7FA",
"+ c #DCF6FD",
"@ c #E9FAFF",
"# c #FEF4FF",
"$ c #FEF5FF",
"% c #FEF6FF",
"& c #FEF7FF",
"* c #FEF8FF",
"= c #FEF9FF",
"- c #FEFAFF",
"; c #FEFBFF",
": c #FEFCFF",
"> c #FEFDFF",
", c #FEFEFF",
"< c white",
"1 c None",
/* pixels */
"11111111111111111111111111111111",
"11111111111111111111111111111111",
"11111111111111111111111111111111",
"111111111111111      11111111111",
"11111111111111  <<<   1111111111",
"1111      111  <#####  111111111",
"111   <   11  <######        111",
"11  <<#<<    #########  <<<<  11",
"11 <<$$$$$$$$$$$###### <<<<<< 11",
"1  <&%%%%%%%%%%%$$$$$$$$$$$#<< 1",
"1 <<*&&&&&&&&&&&%%%%%%%%%%%$$< 1",
"1 <==***********&&&&&&&&&&&%%< 1",
"1 <--===========***********&&& 1",
"1 ;;;-----------===========*** 1",
"1  ::;;;;;;;;;;;------------=X 1",
"11  >:::::::::::;;;;;;;;;;;-  11",
"111 ,>>>>>>>>>>>:::::::::::- 111",
"111 <,,,,,,,,,,,>>>>>>>>>>-- 111",
"11  <<<<<<<<<<<<,,,,,,,,,,,>>  1",
"1  o<<<<<<<<<<<<<<<<<<<<<<<,,, 1",
"1 +<<<<<<<<<<<<<<<<<<<<<<<<<<< 1",
"1 +<<<<<<<<<<<<<<<<<<<<<<<<<<  1",
"1 O<<<<<<<<<<<<<<<<<<<<<<<<<+  1",
"1 O+<<<<<<<<<<<<<<<<<<<<<<<OO  1",
"1 OO+<<<oooo<<<<<<<<<< <<+OO  11",
"1  OO++++   ++<<<<<<<   OOO  111",
"11  OO.o     ++oo<<<        1111",
"111     1111  +@@@@  11111111111",
"11111111111111  OO  111111111111",
"111111111111111    1111111111111",
"11111111111111111111111111111111",
"11111111111111111111111111111111"
};
