/* XPM */
static char *_cf4d28c23eb429fe0ca56e8614ebb387ALty8jJdqFlCzaE[] = {
/* columns rows colors chars-per-pixel */
"32 32 9 1 ",
"  c None",
". c #BBD8EA",
"X c #CAE8F1",
"o c #D9E3F5",
"O c #D0EFF7",
"+ c #D9ECF5",
"@ c #EBFCFD",
"# c #EBFCFD",
"$ c white",
/* pixels */
"                                ",
"                                ",
"               ......           ",
"              .$$$$...          ",
"    ......   ..$@@@@@..         ",
"   ...$...  ..$@@@@@@........   ",
"  ..$$@$$....@@@@@@@@@..$$$$..  ",
"  .$$@@@@@@@@@@@@@@@@@.$$$$$$.  ",
" ..$@@@@##@@@@@#####@@@@@@@@$$. ",
" .$$@@@#@@@@@@##@@@@#@@@@@@@@$. ",
" .$@@@##@@@@@##@@@@@@#@@@@@@@$. ",
" .$@@@@#@@@@@#@@@@@@@###@@@@@@. ",
" .@@@@@####@@@@@@@@@@@@##@@@@@. ",
" ..@@@@##@@@@@@@@##@@@@@#@@@@O. ",
"  ..@@##@@@@@@@@@@##@@@@##@...  ",
"   .@@#@@@@@@@@@@@@#@@@@#@@..   ",
"   .@@#@@@@@@@@@@@@@#@###@@@.   ",
"  ..@@#@@@@@@@@@@@@@#@@@#@@@@.. ",
" ..+@@@#@@@@@@@@@@@##@@@##@@@@. ",
" .++@@@@##@@@@@@#@##@@@@##@@@@. ",
" .X+@@@@@####@@@@##@@@@##@@@@.. ",
" .X+@@@@@@#@@@@@@@@@@@#@@@@@+.. ",
" .Xo+@@@@@@@@@@@@@@@@@@@@@@++.. ",
" .XXo+@@++++@@@@@@@@@@.@@++o..  ",
" ..XXo+++...o+@@@@@@@...oXX..   ",
"  ..XXX+.....o+++@@@........    ",
"   .....    ...o+oo..           ",
"              ..XX..            ",
"               ....             ",
"                                ",
"                                ",
"                                "
};
