/* XPM */
static char *result[] = {
/* columns rows colors chars-per-pixel */
"32 32 32 1 ",
"  c #F4D7AA",
". c #FFEDAA",
"X c #FFF1BC",
"o c #F7BAE5",
"O c #FFF4CB",
"+ c #F7C5E8",
"@ c #FFDEF5",
"# c #FFDFF5",
"$ c #FFE0F5",
"% c #FFE1F5",
"& c #FFE1F6",
"* c #FFE2F6",
"= c #FFE3F6",
"- c #FFE4F6",
"; c #FFE4F7",
": c #FFE5F7",
"> c #FFE6F7",
", c #FFE7F7",
"< c #FFE7F8",
"1 c #FFE8F8",
"2 c #FFE9F8",
"3 c #FFEAF8",
"4 c #FFEBF8",
"5 c #FFEBF9",
"6 c #FFECF9",
"7 c #FFEDF9",
"8 c #FFEEFA",
"9 c #FFF0FB",
"0 c #FFF8FB",
"q c #FFF8FD",
"w c white",
"e c None",
/* pixels */
"eeeeeeeeeeeeeeeeeeeeeeeeeeeeeeee",
"eeeeeeeeeeeeeeeeeeeeeeeeeeeeeeee",
"eeeeeeeeeeeeeeeeeeeeeeeeeeeeeeee",
"eeeeeeeeeeeeeeeeeeeeeeeeeeeeeeee",
"eeeeeeeeeeeeeeeeeeeeeeeeeeeeeeee",
"eeeeeeeeeeeeeeeeeeeeeeeeeeeeeeee",
"eeeeeeeeeeeeeeeeeeeeeeweeeeeeeee",
"eeeeeeeeeeeeeeeeeXXXewwweeeeeeee",
"eeeeeeeeeeeeeee.XXwXeeweeeeeeeee",
"eeeeeeeeeeeeeXXXXwwXeeeeeeeeeeee",
"eeeeee...O..XX@999qXeeeeeeeeeeee",
"eeeeee.Xwwq9@@@@@@9XXXXX...eeeee",
"eeeeee...w-00&$##@99qwwww..eeeee",
"eeewee.+..:-00&%$#@@@@w....eeeee",
"eeewee.++..:;00*&$##@w..++.eeeee",
"ewwwww oo..>::00*&%$..++++.eeeee",
"eeewee  ..1<,>:00=..++++o..eeeee",
"eeeweee..3221,>:00=.++....eeeeee",
"eeeeee..6543...,>00....eeeeeeeee",
"eeeee..877.......>0..eeeeeeeeeee",
"eeee......+++.++..,0Oeeeeeeeeeee",
"eeee.o+++++++.+++...Oeeeeeeeeeee",
"eeee.ooooooo   ++++..eeeeeeeeeee",
"eeee         e  oooo.eeeeeeeeeee",
"eeeeeeeeeeeeeee   oo eeeeeeeeeee",
"eeeeeeeeeeeeeeeee    eeeeeeeeeee",
"eeeeeeeeeeeeeeeeeeeeeeeeeeeeeeee",
"eeeeeeeeeeeeeeeeeeeeeeeeeeeeeeee",
"eeeeeeeeeeeeeeeeeeeeeeeeeeeeeeee",
"eeeeeeeeeeeeeeeeeeeeeeeeeeeeeeee",
"eeeeeeeeeeeeeeeeeeeeeeeeeeeeeeee",
"eeeeeeeeeeeeeeeeeeeeeeeeeeeeeeee"
};
