/* XPM */
static char *result[] = {
/* columns rows colors chars-per-pixel */
"32 32 30 1 ",
"  c #F4D7AA",
". c #FFEDAA",
"X c #FFF1BC",
"o c #F7BAE5",
"O c #F7C5E8",
"+ c #FFDEF5",
"@ c #FFDFF5",
"# c #FFE0F5",
"$ c #FFE1F5",
"% c #FFE1F6",
"& c #FFE2F6",
"* c #FFE3F6",
"= c #FFE4F6",
"- c #FFE4F7",
"; c #FFE5F7",
": c #FFE6F7",
"> c #FFE7F7",
", c #FFE7F8",
"< c #FFE8F8",
"1 c #FFE9F8",
"2 c #FFEAF8",
"3 c #FFEBF8",
"4 c #FFEBF9",
"5 c #FFECF9",
"6 c #FFEDF9",
"7 c #FFEEFA",
"8 c #FFF0FB",
"9 c #FFF8FD",
"0 c white",
"q c None",
/* pixels */
"qqqqqqqqqqqqqqqqqqqqqqqqqqqqqqqq",
"qqqqqqqqqqqqqqqqqqqqqqqqqqqqqqqq",
"qqqqqqqqqqqqqqqqqqqqqqqqqqqqqqqq",
"qqqqqqqqqqqqqqqqqqqqqqqqqqqqqqqq",
"qqqqqqqqqqqqqqqqqqqqqqqqqqqqqqqq",
"qqqqqqqqqqqqqqqqqqqqqqqqqqqqqqqq",
"qqqqqqqqqqqqqqqqqqqqqqqqqqqqqqqq",
"qqqqqqqqqqqqqqqqqXXXqqqqqqqqqqqq",
"qqqqqqqqqqqqqqq.XX0Xqqqqqqqqqqqq",
"qqqqqqqqqqqqqXXXX00Xqqqqqqqqqqqq",
"qqqqqq......XX+8889Xqqqqqqqqqqqq",
"qqqqqq.X0098++++++8XXXXX...qqqqq",
"qqqqqq...0=*&%#@@+8890000..qqqqq",
"qqqqqq.O..;=*&%$#@++++0....qqqqq",
"qqqqqq.OO..;-**&%#@@+0..OO.qqqqq",
"qqqqqq oo..:;;=*0%$#..OOOO.qqqqq",
"qqqqqq  ..<,>:;-0*..OOOOo..qqqqq",
"qqqqqqq..211<>00000.OO....qqqqqq",
"qqqqqq..5432...>0;-....qqqqqqqqq",
"qqqqq..766......0:;..qqqqqqqqqqq",
"qqqq......OOO.OO..>:.qqqqqqqqqqq",
"qqqq.oOOOOOOO.OOO....qqqqqqqqqqq",
"qqqq.ooooooo   OOOO..qqqqqqqqqqq",
"qqqq         q  oooo.qqqqqqqqqqq",
"qqqqqqqqqqqqqqq   oo qqqqqqqqqqq",
"qqqqqqqqqqqqqqqqq    qqqqqqqqqqq",
"qqqqqqqqqqqqqqqqqqqqqqqqqqqqqqqq",
"qqqqqqqqqqqqqqqqqqqqqqqqqqqqqqqq",
"qqqqqqqqqqqqqqqqqqqqqqqqqqqqqqqq",
"qqqqqqqqqqqqqqqqqqqqqqqqqqqqqqqq",
"qqqqqqqqqqqqqqqqqqqqqqqqqqqqqqqq",
"qqqqqqqqqqqqqqqqqqqqqqqqqqqqqqqq"
};
