/* XPM */
static char *_8e157cd03f241ec9cdbe55a3935c41f1T07XnX4tVRovIJE[] = {
/* columns rows colors chars-per-pixel */
"32 32 6 1 ",
"  c #DCF6FD",
". c #D7F1FC",
"X c #E2F1F7",
"o c #EAF7FC",
"O c #FFF8FF",
"+ c white",
/* pixels */
"oooooooo               oXooooooo",
"ooo+++...      .........oooooooo",
"o+oooooo...   ...........ooooooo",
"Ooooooooo...  ...OOOO.....oooooo",
"Ooooooo+OO.....++++OOOO....oooo.",
"OooooooooOO....+++ooooOOO...ooo.",
"Xoooooooo+O....oooooooooOO..ooo.",
"Xooooooooo+....oooooooooo+O..oo.",
"Xooooooooo+o..oooooooooooo+..oo ",
" oooooooooo+..ooooooooooooo+..o ",
" oooooooooooooooooooooooooo+..  ",
"ooooooooooooooooooooooooooo+..  ",
"oooooooooooooooooooooooooooo..  ",
" ooooooooooooooooooooooooooo.   ",
" oooooooooooooooooooooooooo..   ",
" .ooooooooooooooooooooooooo...  ",
" .ooooooooooooooooooooooooo...  ",
" ..oooooooooooooooooooooooooo.. ",
"  .ooooooooooooooooooooooooooX. ",
".  .ooo..ooooooooooooooooooooo..",
"...o....ooooooooooooooooooooooo.",
".......ooooooooooooooooooooooooo",
".oooo..oooooooooooooooooooooooo.",
"oooooo.oooooooooo.oooooooooooo..",
"ooooooooooooooooo.+ooooooooooooo",
"oooooooooooooooo...+oooooooooooo",
"ooooooooooooooo....Ooooooooooooo",
"oooooooooooooo... .+Oooooooooooo",
"oooooooooooooX.    .+Ooooooooooo",
"ooooooooooooX.      .XXXoooooooo",
"oooooooooooX          XXXXXooooo",
"oooooooooo.              Xoooooo"
};
