/* XPM */
static char *_2498bb25b2b4d19d3cac8298d08273czpxS6vT6bKMLaiRa[] = {
/* columns rows colors chars-per-pixel */
"32 32 63 1 ",
"  c None",
". c #6BCAEF",
"X c #72CCEF",
"o c #81D2F1",
"O c #93D6F1",
"+ c #94D6F1",
"@ c #95D6F1",
"# c #97D7F1",
"$ c #99D8F1",
"% c #9AD8F2",
"& c #9CD9F2",
"* c #9EDAF2",
"= c #9FDAF2",
"- c #A0DBF2",
"; c #A1DBF2",
": c #A2DBF3",
"> c #A4DCF3",
", c #A6DDF3",
"< c #A7DDF3",
"1 c #A3DDF4",
"2 c #A8DEF3",
"3 c #A9DEF3",
"4 c #AADEF4",
"5 c #ABDFF4",
"6 c #ACDFF4",
"7 c #ADE0F4",
"8 c #AFE0F4",
"9 c #B1E1F4",
"0 c #B2E1F5",
"q c #B2E2F5",
"w c #B3E2F5",
"e c #B4E2F5",
"r c #B5E3F5",
"t c #B7E3F5",
"y c #B3E4F7",
"u c #B9E4F5",
"i c #BAE5F6",
"p c #BBE5F6",
"a c #BCE5F6",
"s c #BDE6F6",
"d c #BEE6F6",
"f c #BFE6F6",
"g c #BDE9FA",
"h c #C0E7F6",
"j c #C2E8F7",
"k c #C4E8F7",
"l c #C5E9F7",
"z c #C6E9F7",
"x c #C7EAF7",
"c c #C8EAF7",
"v c #CAEAF8",
"b c #CCEBF8",
"n c #CBEDFA",
"m c #CDECF8",
"M c #CFECF8",
"N c #D1EDF9",
"B c #D4F1FC",
"V c #DBF2FC",
"C c #E0F5FD",
"Z c #E1F6FF",
"A c #E5F7FF",
"S c #EAF7FC",
"D c #E9F9FF",
/* pixels */
"                                ",
"                                ",
"                                ",
"          X.... ...XX           ",
"         XXZZ.....XZXX          ",
"        XXZZZZZ..ZZZZXX         ",
"        XZZZZZZZZZZZZZX         ",
"        XZZZZZZZZZZZZZo         ",
"      oooZZZZZZZZZZZZZoooo      ",
"     ooZZZZZZZZZZZZZZZZZooo     ",
"    ooZZZZZZZZZZZZZZZZZZZZo     ",
"    oZZZZZZZZZZZZZZZZZZZZZo     ",
"    oZZZZZZZZZZZZZZZZZZZZZo     ",
"    OOZZZZZZZZZZZZZZZZZZZOO     ",
"    OOOZZZZZZZZZZZZZZZZZZOO     ",
"     OOZZZZZZZZZZZZZZZZZZOO     ",
"     OOZZZZZVOOOOOOZZZZZZO11    ",
"    11ZZZZZZ+OOOOOOOZZZZZZZ11   ",
"    1ZZZZZZ1++OOO+++1ZZZZZZZ1   ",
"   1ZZZZZZZ1;;==$$#+1ZZZZZZZ1   ",
"  yyZZZZZZZy53<<>:;=yZZZZZZyy   ",
"  yyZZZZZZZgwww6766>gZZZZZZyy   ",
"  ggZZZZZZZgsspptrwwgZZZZZgg    ",
"   nnZZZZZZnclhhhhspnZZZZnn     ",
"    BBAZZZZMMMMnclllnZZZZBB     ",
"    ZVAZZZZMMMMMNMNMMZZZZZZ     ",
"     DAAZZZZVVVVVVVVVZZZZSS     ",
"      SAAAAAAAAAAAAAAAAAAD      ",
"                                ",
"                                ",
"                                ",
"                                "
};
