/* XPM */
static char *result[] = {
/* columns rows colors chars-per-pixel */
"32 32 31 1 ",
"  c #F4D7AA",
". c #FFEDAA",
"X c #FFF1BC",
"o c #F7BAE5",
"O c #FFF4CB",
"+ c #F7C5E8",
"@ c #FFDEF5",
"# c #FFDFF5",
"$ c #FFE0F5",
"% c #FFE1F5",
"& c #FFE1F6",
"* c #FFE2F6",
"= c #FFE3F6",
"- c #FFE4F6",
"; c #FFE4F7",
": c #FFE5F7",
"> c #FFE6F7",
", c #FFE7F7",
"< c #FFE8F8",
"1 c #FFE9F8",
"2 c #FFEAF8",
"3 c #FFEBF8",
"4 c #FFEBF9",
"5 c #FFECF9",
"6 c #FFEDF9",
"7 c #FFEEFA",
"8 c #FFF0FB",
"9 c #FFF8FB",
"0 c #FFF8FD",
"q c white",
"w c None",
/* pixels */
"wwwwwwwwwwwwwwwwwwwwwwwwwwwwwwww",
"wwwwwwwwwwwwwwwwwwwwwwwwwwwwwwww",
"wwwwwwwwwwwwwwwwwwwwwwwwwwwwwwww",
"wwwwwwwwwwwwwwwwwwwwwwwwwwwwwwww",
"wwwwwwwwwwwwwwwwwwwwwwwwwwwwwwww",
"wwwwwwwwwwwwwwwwwwwwwwqwwwwwwwww",
"wwwwwwwwwwwwwwwwwwwwwwqwwwwwwwww",
"wwwwwwwwwwwwwwwwwXXXqqqqqwwwwwww",
"wwwwwwwwwwwwwww.XXqXwwqwwwwwwwww",
"wwwwwwwwwwwwwXXXXqqXwwqwwwwwwwww",
"wwwwww......XX@8880Xwwwwwwwwwwww",
"wwwwwwOOqq08@@@@@@8XXXXX...wwwww",
"wwwwww.OOq-=*&$##@880qqqq..wwwww",
"wwwwww.+OO:-=*&%$#@@@@q....wwwww",
"wwwqww.++OO:;==*&$##@q..++.wwwww",
"wwqqqw oo..9::-=*&%$..++++.wwwww",
"wwwqww  ..<99>:;==..++++o..wwwww",
"wwwwwww..21199>::-=.++....wwwwww",
"wwwwww..5432.OO,>:;....wwwwwwwww",
"wwwww..766....OOO>:..wwwwwwwwwww",
"wwww......+++.++OO,>.wwwwwwwwwww",
"wwww.o+++++++.+++OO..wwwwwwwwwww",
"wwww.ooooooo   +++OOOwwwwwwwwwww",
"wwww         w  ooooOwwwwwwwwwww",
"wwwwwwwwwwwwwww   oo wwwwwwwwwww",
"wwwwwwwwwwwwwwwww    wwwwwwwwwww",
"wwwwwwwwwwwwwwwwwwwwwwwwwwwwwwww",
"wwwwwwwwwwwwwwwwwwwwwwwwwwwwwwww",
"wwwwwwwwwwwwwwwwwwwwwwwwwwwwwwww",
"wwwwwwwwwwwwwwwwwwwwwwwwwwwwwwww",
"wwwwwwwwwwwwwwwwwwwwwwwwwwwwwwww",
"wwwwwwwwwwwwwwwwwwwwwwwwwwwwwwww"
};
