/* XPM */
static char *_26b78eba0eb4044887e6413042b6002QnmwtnCGxz38nQ2q[] = {
/* columns rows colors chars-per-pixel */
"32 32 30 1 ",
"  c None",
". c #F4D7AA",
"X c #FFEDAA",
"o c #FFF1BC",
"O c #F7BAE5",
"+ c #F7C5E8",
"@ c #FFDEF5",
"# c #FFDFF5",
"$ c #FFE0F5",
"% c #FFE1F5",
"& c #FFE1F6",
"* c #FFE2F6",
"= c #FFE3F6",
"- c #FFE4F6",
"; c #FFE4F7",
": c #FFE5F7",
"> c #FFE6F7",
", c #FFE7F7",
"< c #FFE7F8",
"1 c #FFE8F8",
"2 c #FFE9F8",
"3 c #FFEAF8",
"4 c #FFEBF8",
"5 c #FFEBF9",
"6 c #FFECF9",
"7 c #FFEDF9",
"8 c #FFEEFA",
"9 c #FFF0FB",
"0 c #FFF8FD",
"q c white",
/* pixels */
"                                ",
"                                ",
"                                ",
"                                ",
"                                ",
"                                ",
"                                ",
"                 ooo            ",
"               Xooqo            ",
"             ooooqqo            ",
"      XXXXXXoo#8990o            ",
"      Xoqq09@#####9oooooXXX     ",
"      XXXq====####890qqqqXX     ",
"      X+XX>====#######qXXXX     ",
"      X++XX>=====####qXX++X     ",
"      .OOXX>;<===#=#XX++++X     ",
"      ..XX<<>>>>==XX++++OXX     ",
"       XX444<>>>;==X++XXXX      ",
"      XX4444XXX><=;XXXX         ",
"     XX884XXXXXXX><XX           ",
"    XXXXXX+++X++XX>>X           ",
"    XO+++++++X+++XXXX           ",
"    XOOOOOOO...++++XX           ",
"    ......... ..OOOOX           ",
"               ...OO.           ",
"                 ....           ",
"                                ",
"                                ",
"                                ",
"                                ",
"                                ",
"                                "
};
