/* XPM */
static char *result[] = {
/* columns rows colors chars-per-pixel */
"32 32 32 1 ",
"  c #F4D7AA",
". c #FFEDAA",
"X c #FFF1BC",
"o c #F7BAE5",
"O c #FFF4CB",
"+ c #F7C5E8",
"@ c #FFDEF5",
"# c #FFDFF5",
"$ c #FFE0F5",
"% c #FFE1F5",
"& c #FFE1F6",
"* c #FFE2F6",
"= c #FFE3F6",
"- c #FFE4F6",
"; c #FFE4F7",
": c #FFE5F7",
"> c #FFE6F7",
", c #FFE7F7",
"< c #FFE7F8",
"1 c #FFE8F8",
"2 c #FFE9F8",
"3 c #FFEAF8",
"4 c #FFEBF8",
"5 c #FFEBF9",
"6 c #FFECF9",
"7 c #FFEDF9",
"8 c #FFEEFA",
"9 c #FFF0FB",
"0 c #FFF8FB",
"q c #FFF8FD",
"w c white",
"e c None",
/* pixels */
"eeeeeeeeeeeeeeeeeeeeeeeeeeeeeeee",
"eeeeeeeeeeeeeeeeeeeeeeeeeeeeeeee",
"eeeeeeeeeeeeeeeeeeeeeeeeeeeeeeee",
"eeeeeeeeeeeeeeeeeeeeeeeeeeeeeeee",
"eeeeeeeeeeeeeeeeeeeeeeeeeeeeeeee",
"eeeeeeeeeeeeeeeeeeeeeeeeeeeeeeee",
"eeeeeeeeeeeeeeeeeeeeeeeeeeeeeeee",
"eeeeeeeeeeeeeeeeeXXXeeeeeeeeeeee",
"eeeeeeeeeeeeeeeOXXwXeeeeeeeeeeee",
"eeeeeeeeeeeeeXO0XwwXeeeeeeeeeeee",
"eeeeee......XX@009qXeeeeeeeeeeee",
"eeeeee.Xwwq9@@@@009XXXXX...eeeee",
"eeeeee...w-=*&$##000qwwww..eeeee",
"eeeeee.+..:-=*&%$#@00@w....eeeee",
"eeewee.++..:;==*&$##00O.++.eeeee",
"eewwwe oo..>::-=*&%$.O++++.eeeee",
"eeewee  ..1<,>:;w=..++++o..eeeee",
"eeeeeee..3221,>www=.++....eeeeee",
"eeeeee..6543...,w:;....eeeeeeeee",
"eeeee..877.......>:..eeeeeeeeeee",
"eeee......+++.++..,>.eeeeeeeeeee",
"eeee.o+++++++.+++....eeeeeeeeeee",
"eeee.ooooooo   ++++..eeeeeeeeeee",
"eeee         e  oooo.eeeeeeeeeee",
"eeeeeeeeeeeeeee   oo eeeeeeeeeee",
"eeeeeeeeeeeeeeeee    eeeeeeeeeee",
"eeeeeeeeeeeeeeeeeeeeeeeeeeeeeeee",
"eeeeeeeeeeeeeeeeeeeeeeeeeeeeeeee",
"eeeeeeeeeeeeeeeeeeeeeeeeeeeeeeee",
"eeeeeeeeeeeeeeeeeeeeeeeeeeeeeeee",
"eeeeeeeeeeeeeeeeeeeeeeeeeeeeeeee",
"eeeeeeeeeeeeeeeeeeeeeeeeeeeeeeee"
};
