/* XPM */
static char *result[] = {
/* columns rows colors chars-per-pixel */
"32 32 30 1 ",
"  c #F4D7AA",
". c #FFEDAA",
"X c #FFF1BC",
"o c #F7BAE5",
"O c #FFF4CB",
"+ c #F7C5E8",
"@ c #FFDEF5",
"# c #FFDFF5",
"$ c #FFE0F5",
"% c #FFE1F5",
"& c #FFE1F6",
"* c #FFE2F6",
"= c #FFE3F6",
"- c #FFE4F6",
"; c #FFE4F7",
": c #FFE5F7",
"> c #FFE6F7",
", c #FFE7F7",
"< c #FFE7F8",
"1 c #FFE8F8",
"2 c #FFE9F8",
"3 c #FFEBF9",
"4 c #FFECF9",
"5 c #FFEDF9",
"6 c #FFEEFA",
"7 c #FFF0FB",
"8 c #FFF8FB",
"9 c #FFF8FD",
"0 c white",
"q c None",
/* pixels */
"qqqqqqqqqqqqqqqqqqqqqqqqqqqqqqqq",
"qqqqqqqqqqqqqqqqqqqqqqqqqqqqqqqq",
"qqqqqqqqqqqqqqqqqqqqqqqqqqqqqqqq",
"qqqqqqqqqqqqqqqqqqqqqqqqqqqqqqqq",
"qqqqqqqqqqqqqqqqqqqqqqqqqqqqqqqq",
"qqqqqqqqqqqqqqqqqqqqqqqqqqqqqqqq",
"qqqqqqqqqqqqqqqqqqqqqq0qqqqqqqqq",
"qqqqqqqqqqqqqqqqqXXXq000qqqqqqqq",
"qqqqqqqqqqqqqqq.XX0Xqq0qqqqqqqqq",
"qqqqqqqqqqqqqXXXX00Xqqqqqqqqqqqq",
"qqqqqq......XX@7779Xqqqqqqqqqqqq",
"qqqqqq.X0097@@@@@@7XXXXX...qqqqq",
"qqqqqq...0-=*&$##@7790000..qqqqq",
"qqqqqq.+..:-=*&%$#@@@@0....qqqqq",
"qqqqqq.++..:;==*&$##@0..++.qqqqq",
"qqqqqq oo..>::-=*&%$..++++.qqqqq",
"qqqqqq  O.1<,>:;==..++++o..qqqqq",
"qqqqqqq..8821,>::-=.++....qqqqqq",
"qqqqqq..4388...,>:;....qqqqqqqqq",
"qqqqq..655..O....>:..qqqqqqqqqqq",
"qqqq......+++.++..,>.qqqqqqqqqqq",
"qqqq.o+++++++.+++....qqqqqqqqqqq",
"qqqq.ooooooo   ++++..qqqqqqqqqqq",
"qqqq         q  oooo.qqqqqqqqqqq",
"qqqqqqqqqqqqqqq   oo qqqqqqqqqqq",
"qqqqqqqqqqqqqqqqq    qqqqqqqqqqq",
"qqqqqqqqqqqqqqqqqqqqqqqqqqqqqqqq",
"qqqqqqqqqqqqqqqqqqqqqqqqqqqqqqqq",
"qqqqqqqqqqqqqqqqqqqqqqqqqqqqqqqq",
"qqqqqqqqqqqqqqqqqqqqqqqqqqqqqqqq",
"qqqqqqqqqqqqqqqqqqqqqqqqqqqqqqqq",
"qqqqqqqqqqqqqqqqqqqqqqqqqqqqqqqq"
};
