/* XPM */
static char *result[] = {
/* columns rows colors chars-per-pixel */
"32 32 17 1 ",
"  c #472C0E",
". c #3D4E68",
"X c #3F506A",
"o c #6DC6E9",
"O c #6EC6E9",
"+ c #6DC6EA",
"@ c #6DC6EB",
"# c #E2A7AD",
"$ c #8CABD3",
"% c #8CD0D3",
"& c #8BE4C9",
"* c #8CE4C8",
"= c #F0D9F2",
"- c #F0DDF3",
"; c #FFFAF5",
": c #F1F9FC",
"> c None",
/* pixels */
">>>>>>>>>>>>>>>>>>>>>>>>>>>>>>>>",
">>>>>>>>>>>>>>>>>>>>>>>>>>>>>>>>",
">>>>>>>>>>>>>>>>>>>>>>>>>>>>>>>>",
">>>>>>>>>>>>>>>>>>>>>>>>>>>>>>>>",
">>>>>>>>>>>>>%>>>+>>>>>>>>>>>>>>",
">>>>>>>>>>>>>>>>++O>>>>>>>>>>>>>",
">>>>>>>>>>>>>>>>>+>>>>>>>>>>>>>>",
">>>.....>>>>>>>>>>>>>....>>>>>>>",
">>..:....>>>>>>>>>>>..:::..>>>>>",
">>.::::::.>>.....>>..::::::.>>@>",
">..::::::..........:::$$$:..>o+O",
">.::$$$$:::::::::::::$$$$:.>>>+>",
">.::$$$.:::::::::::::.$$$:..>>>>",
">>.:$$.:::::::::::::::.$$::.>>>>",
">>..:.:::::::::::::::::.::.>>>>>",
">>>.:::::::::::::::::::::...>>>>",
">>>.:::::::::::::::::::::..:.>>>",
">>>.:::::::::::::::::::::.:::.>>",
">>.:::::::; :::::; ::::::.:::.>>",
">>.:::::::  :::::  :::::::::::.>",
">>..:::::=-:::::::==:::::::::..>",
">>>.::::::::#:::#::::::::::::.>>",
">>X::::::::::###::::::::::::.>>>",
">>X::::::::::::::::::::::.:..>>>",
">>>X:::::::::::::::::::::..>>>>>",
">>>.::::::::::::::::::::.>>>>>>>",
">>>>.:.::::::::::::::::..>>>>>>>",
">>>>>....:::::::::::::..>>>%>>>>",
">%>>>>>...::::...:::..>>>>>>>>>>",
"&%*>>>>>>.....>>.....>>>>>>>>>>>",
">%>>>>>>>>>>>>>>>>>>>>>>>>>>>>>>",
">>>>>>>>>>>>>>>>>>>>>>>>>>>>>>>>"
};
